# xmcd
#
# Track frame offsets:
#	150
#	12186
#	29716
#	46586
#	57096
#	73406
#	85656
#	97121
#	114736
#	131046
#	147346
#	168646
#	183186
#	194631
#	211791
#	223981
#	235836
#	251631
#	265926
#
# Disc length: 3768 seconds
#
# Revision: 1
# Processed by: cddbd v1.5.2PL0 Copyright (c) Steve Scherf et al.
# Submitted via: audiograbber 1.83.01
#
DISCID=230eb613
DTITLE=Various Artist - Country Love Songs [CD2)
DYEAR=2005
DGENRE=Country
TTITLE0=Dolly Parton - Fuel to the flame
TTITLE1=The Judds - Love can build a bridge
TTITLE2=Kris Kristofferson - Loving her was easier (than anything I'll ever do 
TTITLE2=again)
TTITLE3=Willie Nelson - Blue eyes crying in the rain
TTITLE4=Tammy Wynette - Sometimes when we touch
TTITLE5=Glen Campbell - By the time I get to Phoenix
TTITLE6=Charlie Rich - The most beautiful girl
TTITLE7=Tanya Tucker - The best of my love
TTITLE8=Debby Boone - You light up my life
TTITLE9=Alabama - When we make love
TTITLE10=Charlie Daniels - Talking to the moon
TTITLE11=Lacy J. Dalton - Blue-eyed blues
TTITLE12=Johnny Cash - A thing called love
TTITLE13=Willie Nelson and Waylon Jennings - Take it to the limit
TTITLE14=Merls Haggard - You take me for granted
TTITLE15=Marie Osmond - Paper roses
TTITLE16=Larry Gatun - Love is just a game
TTITLE17=Sweethearts Of The Rodeo - So sad ( to wach good love go bad)
TTITLE18=George Jones and Waylon Jennings - Night life
EXTD=
EXTT0=
EXTT1=
EXTT2=
EXTT3=
EXTT4=
EXTT5=
EXTT6=
EXTT7=
EXTT8=
EXTT9=
EXTT10=
EXTT11=
EXTT12=
EXTT13=
EXTT14=
EXTT15=
EXTT16=
EXTT17=
EXTT18=
PLAYORDER=
